# Blender v2.69 (sub 0) OBJ File: 'MainTower.blend'
# www.blender.org
o Cube_Cube.001
v 4.000000 4.000000 -4.000000
v 4.000000 0.000000 -4.000000
v 4.000000 4.000000 4.000000
v 4.000000 0.000000 4.000000
v -4.000000 4.000000 -4.000000
v -4.000000 0.000000 -4.000000
v -4.000000 4.000000 4.000000
v -4.000000 0.000000 4.000000
v 0.000000 8.000000 -2.828427
v 0.000000 4.000000 -2.828427
v 2.828427 8.000000 0.000000
v 2.828427 4.000000 0.000000
v -2.828427 8.000000 -0.000000
v -2.828427 4.000000 -0.000000
v -0.000000 8.000000 2.828427
v -0.000000 4.000000 2.828427
v 1.000000 12.000000 -1.000000
v 1.000000 8.000000 -1.000000
v 1.000000 12.000000 1.000000
v 1.000000 8.000000 1.000000
v -1.000000 12.000000 -1.000000
v -1.000000 8.000000 -1.000000
v -1.000000 12.000000 1.000000
v -1.000000 8.000000 1.000000
vt 0.677943 0.515495
vt 0.577995 0.515495
vt 0.577995 0.115703
vt 0.677943 0.115703
vt 0.178203 0.515495
vt 0.178203 0.115703
vt 0.178203 0.615443
vt 0.577995 0.615443
vt 0.078255 0.115703
vt 0.078255 0.515495
vt 0.577995 0.015755
vt 0.178203 0.015755
vt 0.968620 0.878099
vt 0.868672 0.878099
vt 0.868672 0.678203
vt 0.968620 0.678203
vt 0.668776 0.878099
vt 0.668776 0.678203
vt 0.668776 0.978047
vt 0.868672 0.978047
vt 0.568828 0.678203
vt 0.568828 0.878099
vt 0.868672 0.578255
vt 0.668776 0.578255
vt 0.327318 0.870287
vt 0.227370 0.870287
vt 0.227370 0.770339
vt 0.327318 0.770339
vt 0.127422 0.870287
vt 0.127422 0.770339
vt 0.127422 0.970235
vt 0.227370 0.970235
vt 0.027474 0.770339
vt 0.027474 0.870287
vt 0.227370 0.670391
vt 0.127422 0.670391
vn 1.000000 0.000000 0.000000
vn 0.000000 1.000000 0.000000
vn 0.000000 0.000000 -1.000000
vn -1.000000 0.000000 0.000000
vn 0.000000 0.000000 1.000000
vn 0.707107 0.000000 -0.707107
vn -0.707107 0.000000 -0.707107
vn -0.707107 0.000000 0.707107
vn 0.707107 0.000000 0.707107
s off
f 2/1/1 1/2/1 3/3/1 4/4/1
f 1/2/2 5/5/2 7/6/2 3/3/2
f 6/7/3 5/5/3 1/2/3 2/8/3
f 8/9/4 7/6/4 5/5/4 6/10/4
f 4/11/5 3/3/5 7/6/5 8/12/5
f 10/13/6 9/14/6 11/15/6 12/16/6
f 9/14/2 13/17/2 15/18/2 11/15/2
f 14/19/7 13/17/7 9/14/7 10/20/7
f 16/21/8 15/18/8 13/17/8 14/22/8
f 12/23/9 11/15/9 15/18/9 16/24/9
f 18/25/1 17/26/1 19/27/1 20/28/1
f 17/26/2 21/29/2 23/30/2 19/27/2
f 22/31/3 21/29/3 17/26/3 18/32/3
f 24/33/4 23/30/4 21/29/4 22/34/4
f 20/35/5 19/27/5 23/30/5 24/36/5
