# Blender v2.78 (sub 0) OBJ File: 'Miner.blend'
# www.blender.org
o Cube_Cube.001
v -2.000000 0.000000 2.000000
v -2.684742 2.284690 -0.890035
v -2.000000 0.000000 -2.000000
v 0.890035 2.284690 -2.684742
v 2.000000 0.000000 2.000000
v -0.890035 2.284690 2.684742
v 2.000000 0.000000 -2.000000
v 2.684742 2.284690 0.890035
v 3.676356 1.628368 2.599801
v 0.502059 3.906930 3.455369
v 1.515427 0.302674 3.302387
v -3.338121 0.294710 2.038862
v -2.670938 3.020529 -0.444233
v -1.817394 2.009264 3.330526
v 0.890035 1.518936 -3.781842
v -0.601668 -0.003688 -3.097100
v 1.045028 -0.003688 -3.097100
v -0.897354 2.284690 -1.787388
v 1.787388 2.284690 -0.897354
v 0.897354 2.284690 1.787388
v -1.787388 2.284690 0.897354
v 1.908370 3.609743 -0.517681
v -1.908370 3.009308 0.517681
v -0.427029 2.780606 -1.880928
v 0.427029 3.838445 1.880928
v 0.163310 4.427566 0.267197
v -0.025186 4.456667 0.572413
v -0.322358 4.351162 0.398944
v -0.252097 5.203365 0.031028
v -0.325954 5.242621 0.051292
v -0.370099 5.175549 0.020323
vn -0.9579 -0.2871 0.0000
vn 0.9956 0.0771 -0.0538
vn 0.9579 -0.2871 0.0000
vn 0.0000 -0.2871 0.9579
vn 0.0000 -1.0000 0.0000
vn -0.2096 0.9526 -0.2203
vn -0.5352 0.6772 0.5049
vn -0.4298 0.2871 -0.8561
vn 0.8561 0.2871 -0.4298
vn 0.5703 -0.7276 0.3813
vn -0.0955 -0.5435 0.8339
vn 0.2867 0.0400 0.9572
vn -0.3516 -0.1381 0.9259
vn 0.3467 0.7122 -0.6105
vn -0.8153 0.4861 0.3146
vn 0.5415 0.8346 0.1012
vn -0.9834 0.1072 -0.1465
vn 0.0000 -0.4101 -0.9120
vn 0.0000 -1.0000 0.0034
vn -0.5415 0.4777 -0.6918
vn 0.8386 0.2240 0.4966
vn 0.0000 1.0000 -0.0000
vn -0.5590 0.3097 0.7692
vn 0.4359 0.2109 -0.8750
vn -0.6817 0.5571 -0.4742
vn -0.5597 0.3189 0.7649
vn -0.2909 0.2624 -0.9201
vn 0.4948 0.8393 0.2255
vn -0.0194 0.4296 -0.9028
vn -0.1870 -0.3763 -0.9074
vn 0.4929 0.6039 0.6264
vn 0.7434 0.1671 -0.6477
vn 0.6680 -0.4775 -0.5707
vn 0.5927 -0.4815 0.6457
vn -0.6269 -0.7773 -0.0526
vn 0.1416 0.9489 0.2821
vn -0.3487 0.6292 -0.6946
vn -0.2137 0.9710 0.1073
vn 0.8660 0.2472 -0.4348
vn -0.1912 -0.7915 -0.5804
vn -0.7399 0.5517 -0.3851
vn 0.9347 -0.1741 0.3099
vn -0.3111 -0.1507 0.9384
vn 0.2840 -0.4309 -0.8566
vn -0.9032 -0.3077 -0.2994
vn -0.7236 0.1671 0.6697
vn 0.1763 -0.4024 -0.8983
vn 0.7459 0.5244 0.4107
s off
f 2//1 3//1 1//1
f 4//2 17//2 15//2
f 8//3 5//3 7//3
f 6//4 1//4 5//4
f 7//5 1//5 3//5
f 22//6 24//6 23//6
f 25//7 28//7 23//7
f 18//8 3//8 2//8
f 19//9 7//9 4//9
f 5//10 9//10 11//10
f 1//11 14//11 12//11
f 7//5 5//5 1//5
f 9//12 10//12 11//12
f 6//13 11//13 10//13
f 20//14 10//14 9//14
f 14//15 13//15 12//15
f 21//16 13//16 14//16
f 2//17 12//17 13//17
f 15//18 17//18 16//18
f 7//19 16//19 17//19
f 4//20 16//20 3//20
f 20//21 22//21 25//21
f 4//22 18//22 19//22
f 18//22 2//22 21//22
f 19//22 20//22 8//22
f 6//22 20//22 21//22
f 21//23 25//23 23//23
f 19//24 24//24 22//24
f 18//25 23//25 24//25
f 27//26 31//26 28//26
f 22//27 28//27 26//27
f 25//28 26//28 27//28
f 31//29 30//29 29//29
f 28//30 29//30 26//30
f 27//31 29//31 30//31
f 4//32 7//32 17//32
f 25//7 27//7 28//7
f 18//8 4//8 3//8
f 19//9 8//9 7//9
f 5//33 8//33 9//33
f 1//34 6//34 14//34
f 6//35 5//35 11//35
f 9//36 8//36 20//36
f 20//37 6//37 10//37
f 14//38 6//38 21//38
f 21//39 2//39 13//39
f 2//40 1//40 12//40
f 7//19 3//19 16//19
f 4//41 15//41 16//41
f 20//42 19//42 22//42
f 21//43 20//43 25//43
f 19//44 18//44 24//44
f 18//45 21//45 23//45
f 27//46 30//46 31//46
f 22//27 23//27 28//27
f 25//28 22//28 26//28
f 28//47 31//47 29//47
f 27//48 26//48 29//48
