# Blender v2.78 (sub 0) OBJ File: 'Rock01.blend'
# www.blender.org
o Cube_Cube.001
v -2.897124 0.257879 1.541011
v -1.571410 2.318359 0.865641
v -3.656888 -0.042125 -0.865641
v -2.331174 2.018356 -1.541011
v 2.741273 0.031637 1.773394
v 2.444537 1.402541 0.013376
v 3.856716 0.081016 0.297956
v 3.344580 0.773305 -0.112294
v -1.175834 -0.001462 -1.774240
v -0.456993 1.607230 -1.414808
v -0.964152 0.094308 2.374200
v -0.245311 2.186482 0.481412
v 1.835115 1.104426 -1.260463
v 1.070035 -0.156333 2.691995
v 1.858475 0.048267 -1.889534
v 1.376497 2.025197 0.011502
v -1.250518 3.207269 0.070847
v -1.285055 2.929964 -1.089923
v -0.349287 3.082394 -0.594136
v -0.234471 2.894098 -1.211202
v 0.939809 2.901137 -0.515494
v 0.591749 2.701230 -1.103553
v -0.076026 0.014875 3.582808
v -1.365411 3.052714 -0.561261
v -0.702278 3.160734 -0.209921
v -0.857388 2.896129 -1.202286
v -0.194255 3.004148 -0.850946
v -0.779833 3.248148 -0.706103
vt 0.3868 0.3699
vt 0.5810 0.3434
vt 0.6376 0.4606
vt 0.4779 0.5995
vt 0.9819 0.3632
vt 0.8746 0.3096
vt 0.9096 0.1647
vt 0.9566 0.0899
vt 0.8327 0.1988
vt 0.7900 0.0118
vt 0.4529 0.1604
vt 0.6479 0.2815
vt 0.4431 0.6433
vt 0.5304 0.8497
vt 0.4138 0.9271
vt 0.2707 0.9502
vt 0.6397 0.3505
vt 0.6495 0.3723
vt 0.6651 0.3956
vt 0.7599 0.2547
vt 0.7268 0.3118
vt 0.6850 0.3467
vt 0.0240 0.5748
vt 0.2239 0.5748
vt 0.1327 0.8755
vt 0.0157 0.7668
vt 0.7499 0.4345
vt 0.7704 0.6019
vt 0.6069 0.0118
vt 0.6712 0.3622
vt 0.6612 0.3453
vt 0.7413 0.3417
vt 0.7077 0.3697
vt 0.6991 0.3529
vt 0.6828 0.3814
vt 0.4795 0.0239
vt 0.1655 0.9843
vn -0.7991 0.5734 0.1808
vn 0.6722 0.2911 -0.6808
vn 0.5591 0.6949 0.4522
vn -0.0652 0.5479 0.8340
vn 0.0672 -0.9975 -0.0207
vn -0.7991 0.5953 0.0839
vn 0.1756 0.6893 0.7029
vn -0.0267 -0.9976 0.0642
vn -0.1757 0.0132 -0.9844
vn 0.3160 0.7405 0.5931
vn 0.4715 0.7816 -0.4085
vn -0.0390 -0.9991 -0.0150
vn 0.0358 0.3393 -0.9400
vn -0.1428 0.9891 -0.0345
vn 0.2028 0.9196 -0.3363
vn 0.0422 0.2472 -0.9681
vn 0.3932 0.6187 0.6801
vn 0.1190 0.1645 -0.9792
vn 0.8160 0.5152 -0.2619
vn -0.5978 0.6410 0.4814
vn -0.1265 -0.9916 0.0278
vn 0.2386 0.8016 0.5482
vn 0.5355 0.6240 0.5691
vn 0.3482 0.9362 0.0472
vn 0.1151 0.8675 -0.4839
vn -0.2439 0.8797 -0.4082
s off
f 1/1/1 2/2/1 4/3/1 3/4/1
f 15/5/2 13/6/2 8/7/2 7/8/2
f 7/8/3 8/7/3 6/9/3 5/10/3
f 11/11/4 12/12/4 2/2/4 1/1/4
f 15/13/5 7/14/5 5/15/5 14/16/5
f 4/3/6 2/2/6 17/17/6 24/18/6 18/19/6
f 12/12/7 16/20/7 21/21/7 19/22/7
f 3/23/8 9/24/8 11/25/8 1/26/8
f 3/4/9 4/3/9 10/27/9 9/28/9
f 5/10/10 6/9/10 16/20/10 14/29/10
f 8/7/11 13/6/11 16/20/11 6/9/11
f 9/24/12 15/13/12 14/16/12 11/25/12
f 9/28/13 10/27/13 13/6/13 15/5/13
f 28/30/14 24/18/14 17/17/14 25/31/14
f 22/32/15 20/33/15 27/34/15 19/22/15 21/21/15
f 10/27/16 4/3/16 18/19/16 26/35/16 20/33/16
f 2/2/17 12/12/17 19/22/17 25/31/17 17/17/17
f 13/6/18 10/27/18 20/33/18 22/32/18
f 16/20/19 13/6/19 22/32/19 21/21/19
f 11/11/20 23/36/20 12/12/20
f 14/16/21 23/37/21 11/25/21
f 16/20/22 12/12/22 23/36/22
f 16/20/23 23/36/23 14/29/23
f 27/34/24 28/30/24 25/31/24 19/22/24
f 20/33/25 26/35/25 28/30/25 27/34/25
f 26/35/26 18/19/26 24/18/26 28/30/26
